<svg width="602" height="535" viewBox="0 0 602 535" fill="none" xmlns="http://www.w3.org/2000/svg">
<path d="M378.302 15.4561L420.208 54.7174L462.326 276.04H67.2539L378.302 15.4561Z" fill="#FFCF2D"/>
<path d="M420.568 54.409L378.535 15.0244L385.565 7.9327C395.92 -2.50957 414.575 -1.31734 425.333 8.71382C436.09 18.7655 437.974 36.8751 427.62 47.3173L420.568 54.409Z" fill="white"/>
<path d="M420.59 55.272L377.646 15.0446L385.12 7.50065C390.16 2.40285 397.339 -0.24883 405.343 0.0183937C413.009 0.285617 420.462 3.28674 425.799 8.26121C431.135 13.2357 434.502 20.3685 435.052 27.8096C435.624 35.5591 433.147 42.6303 428.107 47.7281L420.59 55.272ZM379.424 15.0035L420.547 53.5248L427.154 46.8853C431.961 42.0547 434.29 35.3125 433.761 27.9124C433.231 20.759 430.013 13.9346 424.888 9.16566C419.764 4.39675 412.628 1.51896 405.28 1.27229C397.656 1.00507 390.817 3.53341 386.031 8.36399L379.424 15.0035Z" fill="#FFCF2D"/>
<path d="M427.599 47.9341C427.43 47.9341 427.281 47.8724 427.154 47.7696L385.1 8.38498C384.845 8.13831 384.845 7.76831 385.078 7.52164C385.332 7.27497 385.735 7.27497 385.968 7.50108L428.022 46.8857C428.277 47.1324 428.277 47.5024 428.044 47.7491C427.938 47.8724 427.768 47.9341 427.599 47.9341Z" fill="#FFCF2D"/>
<path d="M508.828 274.971C508.743 274.971 508.659 274.95 508.574 274.909C508.256 274.765 508.108 274.395 508.256 274.087L567.23 146.395L451.929 10.1524V10.1318C449.748 7.25406 446.551 5.40405 442.909 4.89015C439.266 4.37626 435.645 5.30127 432.723 7.48017L428.022 10.9746C427.747 11.1802 427.345 11.1391 427.133 10.8513C426.921 10.5841 426.963 10.1935 427.26 9.98796L431.961 6.49349C435.158 4.12959 439.118 3.12237 443.099 3.67737C447.08 4.23238 450.574 6.24683 452.946 9.39184L568.713 146.21L568.543 146.56L509.4 274.601C509.294 274.827 509.061 274.971 508.828 274.971Z" fill="#3FB1B5"/>
<path d="M566.087 153.281C569.665 153.281 572.566 150.465 572.566 146.991C572.566 143.517 569.665 140.701 566.087 140.701C562.508 140.701 559.607 143.517 559.607 146.991C559.607 150.465 562.508 153.281 566.087 153.281Z" fill="white"/>
<path d="M566.087 153.898C562.169 153.898 558.972 150.794 558.972 146.992C558.972 143.189 562.169 140.085 566.087 140.085C570.004 140.085 573.202 143.189 573.202 146.992C573.202 150.794 570.004 153.898 566.087 153.898ZM566.087 141.318C562.868 141.318 560.242 143.867 560.242 146.992C560.242 150.116 562.868 152.665 566.087 152.665C569.305 152.665 571.931 150.116 571.931 146.992C571.931 143.867 569.305 141.318 566.087 141.318Z" fill="#FFCF2D"/>
<path d="M492.396 260.047H523.969C533.053 260.047 540.401 267.2 540.401 275.998V276.45H475.942V275.998C475.964 267.2 483.311 260.047 492.396 260.047Z" fill="white"/>
<path d="M541.036 277.067H475.307V275.998C475.328 266.872 482.994 259.431 492.396 259.431H523.969C533.371 259.431 541.036 266.872 541.036 275.998V277.067V277.067ZM476.578 275.834H539.766C539.681 267.447 532.629 260.664 523.969 260.664H492.396C483.756 260.664 476.684 267.447 476.578 275.834Z" fill="#FFCF2D"/>
<path d="M339.444 229.769H139.568C132.051 229.769 125.974 223.869 125.974 216.572V80.8637C125.974 73.5665 132.051 67.667 139.568 67.667H339.444C346.962 67.667 353.039 73.5665 353.039 80.8637V216.552C353.06 223.849 346.962 229.769 339.444 229.769Z" fill="white"/>
<path d="M339.444 230.386H139.568C131.712 230.386 125.338 224.199 125.338 216.573V80.8642C125.338 73.238 131.712 67.0508 139.568 67.0508H339.444C347.301 67.0508 353.674 73.238 353.674 80.8642V216.552C353.696 220.232 352.213 223.705 349.524 226.316C346.835 228.947 343.256 230.386 339.444 230.386ZM139.568 68.2841C132.432 68.2841 126.609 73.9369 126.609 80.8642V216.573C126.609 223.5 132.432 229.153 139.568 229.153H339.444C342.917 229.153 346.178 227.837 348.635 225.453C351.07 223.068 352.425 219.903 352.404 216.552V80.8642C352.404 73.9369 346.581 68.2841 339.444 68.2841H139.568Z" fill="#3FB1B5"/>
<path d="M339.572 217.147H141.623C138.679 217.147 136.308 214.825 136.308 211.988V82.1585C136.308 79.3013 138.7 76.999 141.623 76.999H339.572C342.515 76.999 344.887 79.3218 344.887 82.1585V211.967C344.908 214.825 342.515 217.147 339.572 217.147Z" fill="#66B0F0"/>
<path d="M339.572 217.765H141.623C138.34 217.765 135.672 215.175 135.672 211.988V82.1589C135.672 78.9728 138.34 76.3828 141.623 76.3828H339.572C342.854 76.3828 345.522 78.9728 345.522 82.1589V211.968C345.543 213.51 344.929 214.969 343.807 216.058C342.663 217.148 341.181 217.765 339.572 217.765ZM141.623 77.6162C139.039 77.6162 136.943 79.6512 136.943 82.1589V211.988C136.943 214.496 139.039 216.531 141.623 216.531H339.572C340.821 216.531 342.007 216.058 342.896 215.195C343.786 214.332 344.252 213.201 344.252 211.988V82.1589C344.252 79.6512 342.155 77.6162 339.572 77.6162H141.623Z" fill="#66B0F0"/>
<path d="M148.716 89.744H145.582C144.206 89.744 143.083 88.6545 143.083 87.3184V84.2762C143.083 82.94 144.206 81.8506 145.582 81.8506H148.716C150.093 81.8506 151.215 82.94 151.215 84.2762V87.3184C151.194 88.6751 150.093 89.744 148.716 89.744ZM145.582 83.0839C144.905 83.0839 144.354 83.6184 144.354 84.2762V87.3184C144.354 87.9762 144.905 88.5106 145.582 88.5106H148.716C149.394 88.5106 149.923 87.9762 149.944 87.2978V84.2762C149.944 83.6184 149.394 83.0839 148.716 83.0839H145.582V83.0839Z" fill="white"/>
<path d="M162.967 89.744H159.833C158.457 89.744 157.334 88.6545 157.334 87.3184V84.2762C157.334 82.94 158.457 81.8506 159.833 81.8506H162.967C164.344 81.8506 165.466 82.94 165.466 84.2762V87.3184C165.466 88.6545 164.344 89.744 162.967 89.744ZM159.833 83.0839C159.156 83.0839 158.605 83.6184 158.605 84.2762V87.3184C158.605 87.9762 159.156 88.5106 159.833 88.5106H162.967C163.645 88.5106 164.195 87.9762 164.195 87.3184V84.2762C164.195 83.6184 163.645 83.0839 162.967 83.0839H159.833Z" fill="white"/>
<path d="M177.219 89.744H174.085C172.708 89.744 171.586 88.6545 171.586 87.3184V84.2762C171.586 82.94 172.708 81.8506 174.085 81.8506H177.219C178.595 81.8506 179.717 82.94 179.717 84.2762V87.3184C179.717 88.6545 178.595 89.744 177.219 89.744ZM174.085 83.0839C173.407 83.0839 172.856 83.6184 172.856 84.2762V87.3184C172.856 87.9762 173.407 88.5106 174.085 88.5106H177.219C177.917 88.5106 178.447 87.9967 178.447 87.3184V84.2762C178.447 83.6184 177.896 83.0839 177.219 83.0839H174.085Z" fill="white"/>
<path d="M281.699 276.04H204.112L219.337 229.77H266.453L281.699 276.04Z" fill="white"/>
<path d="M282.567 276.657H203.243L218.871 229.153H266.918L282.567 276.657ZM204.98 275.424H280.83L265.986 230.387H219.802L204.98 275.424Z" fill="#3FB1B5"/>
<path d="M210.21 257.52L219.337 229.77H266.452L210.21 257.52Z" fill="#3FB1B5"/>
<path d="M328.052 120.187H290.338C286.463 120.187 283.308 117.125 283.308 113.363V89.7239C283.308 85.9622 286.463 82.8994 290.338 82.8994H328.052C331.927 82.8994 335.082 85.9622 335.082 89.7239V113.363C335.082 117.125 331.927 120.187 328.052 120.187ZM290.338 84.1328C287.162 84.1328 284.579 86.6405 284.579 89.7239V113.363C284.579 116.446 287.162 118.954 290.338 118.954H328.052C331.228 118.954 333.812 116.446 333.812 113.363V89.7239C333.812 86.6405 331.228 84.1328 328.052 84.1328H290.338Z" fill="white"/>
<path d="M323.499 92.5605H294.722C294.362 92.5605 294.086 92.2933 294.086 91.9438C294.086 91.5944 294.362 91.3271 294.722 91.3271H323.499C323.859 91.3271 324.134 91.5944 324.134 91.9438C324.134 92.2933 323.859 92.5605 323.499 92.5605Z" fill="white"/>
<path d="M323.499 98.9325H294.722C294.362 98.9325 294.086 98.6653 294.086 98.3159C294.086 97.9664 294.362 97.6992 294.722 97.6992H323.499C323.859 97.6992 324.134 97.9664 324.134 98.3159C324.134 98.6653 323.859 98.9325 323.499 98.9325Z" fill="white"/>
<path d="M323.499 105.306H294.722C294.362 105.306 294.086 105.038 294.086 104.689C294.086 104.339 294.362 104.072 294.722 104.072H323.499C323.859 104.072 324.134 104.339 324.134 104.689C324.134 105.038 323.859 105.306 323.499 105.306Z" fill="white"/>
<path d="M323.499 111.677H294.722C294.362 111.677 294.086 111.409 294.086 111.06C294.086 110.711 294.362 110.443 294.722 110.443H323.499C323.859 110.443 324.134 110.711 324.134 111.06C324.134 111.409 323.859 111.677 323.499 111.677Z" fill="white"/>
<path d="M338.47 217.149H188.569L179.781 229.379C169.849 243.193 148.864 243.398 138.658 229.77L85.126 158.298C87.3706 161.011 97.6407 157.989 107.424 151.74C117.355 145.389 123.771 137.393 121.76 134.433L158.88 180.354L170.252 160.867C173.365 155.708 178.531 152.008 184.545 150.651L223.233 142.696H256.584L293.345 150.569C299.74 151.987 305.161 156.037 308.232 161.648L338.47 217.149Z" fill="white"/>
<path d="M159.071 240.479C150.707 240.479 143.083 236.718 138.149 230.119L84.6177 158.647L85.6341 157.907C87.434 160.065 96.9842 157.681 107.085 151.227C111.786 148.225 115.873 144.751 118.583 141.421C121.04 138.42 122.035 135.933 121.23 134.761L122.268 134.042L158.796 179.244L169.701 160.559C172.899 155.255 178.256 151.432 184.397 150.055L223.169 142.079H256.648L256.711 142.1L293.472 149.973C300.037 151.432 305.627 155.584 308.782 161.36L339.508 217.765H188.886L180.289 229.729C175.44 236.471 167.795 240.397 159.304 240.479C159.24 240.479 159.156 240.479 159.071 240.479ZM87.074 159.839L139.187 229.4C143.93 235.731 151.257 239.328 159.325 239.246C167.393 239.164 174.656 235.443 179.272 229.03L188.251 216.532H337.433L307.681 161.936C304.695 156.468 299.422 152.542 293.218 151.165L256.521 143.313H223.296L184.672 151.247C178.87 152.563 173.809 156.18 170.802 161.175L158.965 181.464L122.67 136.57C122.374 138.112 121.336 140.044 119.557 142.203C116.762 145.615 112.569 149.192 107.763 152.254C101.05 156.53 92.982 159.901 88.1752 159.901C87.794 159.901 87.4128 159.88 87.074 159.839Z" fill="#3FB1B5"/>
<path d="M297.327 216.923C297.094 216.923 296.882 216.799 296.755 216.594L286.104 196.182C285.955 195.874 286.061 195.504 286.379 195.36C286.696 195.216 287.078 195.319 287.226 195.627L297.877 216.039C298.025 216.347 297.919 216.717 297.602 216.861C297.517 216.902 297.432 216.923 297.327 216.923Z" fill="#3FB1B5"/>
<path d="M187.722 218.834C187.616 218.834 187.531 218.813 187.425 218.772C187.108 218.628 186.981 218.238 187.15 217.95L197.695 197.744C197.844 197.435 198.246 197.312 198.542 197.476C198.86 197.62 198.987 198.011 198.818 198.299L188.272 218.505C188.166 218.71 187.955 218.834 187.722 218.834Z" fill="#3FB1B5"/>
<path d="M168.6 193.14C168.409 193.14 168.219 193.058 168.092 192.893L143.93 162.903C143.719 162.635 143.761 162.245 144.036 162.039C144.311 161.834 144.714 161.875 144.926 162.142L169.087 192.133C169.299 192.4 169.256 192.79 168.981 192.996C168.875 193.099 168.727 193.14 168.6 193.14Z" fill="#3FB1B5"/>
<path d="M252.879 163.951L243.583 152.953C243.35 152.686 243.392 152.296 243.668 152.09C243.943 151.864 244.345 151.905 244.557 152.172L253.048 162.183L272.466 146.191C272.742 145.964 273.144 146.006 273.356 146.252C273.589 146.519 273.546 146.91 273.292 147.116L252.879 163.951Z" fill="#3FB1B5"/>
<path d="M228.739 164.341L206.356 147.136C206.081 146.931 206.038 146.54 206.25 146.273C206.462 146.006 206.864 145.964 207.139 146.17L228.506 162.594L236.743 152.378C236.955 152.111 237.357 152.07 237.632 152.275C237.908 152.481 237.95 152.871 237.738 153.138L228.739 164.341Z" fill="#3FB1B5"/>
<path d="M95.3114 169.397C93.2997 169.397 92.2409 168.801 91.7116 168.143C91.4998 167.876 91.5422 167.486 91.8174 167.28C92.0927 167.075 92.495 167.116 92.7068 167.383C93.5962 168.472 96.4972 168.411 100.457 167.26C104.671 166.026 109.753 163.601 114.369 160.62C119.092 157.578 123.2 154.063 125.931 150.692C128.409 147.649 129.404 145.142 128.599 143.949C128.409 143.662 128.494 143.292 128.79 143.086C129.086 142.901 129.468 142.983 129.679 143.271C130.823 144.977 129.849 147.876 126.948 151.452C124.131 154.906 119.917 158.523 115.089 161.627C110.304 164.711 105.243 167.136 100.838 168.431C98.4454 169.13 96.6455 169.397 95.3114 169.397Z" fill="#3FB1B5"/>
<path d="M122.48 149.439C120.807 149.439 119.452 148.123 119.452 146.499C119.452 144.875 120.807 143.56 122.48 143.56C124.153 143.56 125.508 144.875 125.508 146.499C125.508 148.123 124.153 149.439 122.48 149.439ZM122.48 144.793C121.506 144.793 120.722 145.553 120.722 146.499C120.722 147.445 121.506 148.205 122.48 148.205C123.454 148.205 124.237 147.445 124.237 146.499C124.237 145.553 123.454 144.793 122.48 144.793Z" fill="#3FB1B5"/>
<path d="M240.639 164.032C238.966 164.032 237.611 162.717 237.611 161.093C237.611 159.469 238.966 158.153 240.639 158.153C242.312 158.153 243.667 159.469 243.667 161.093C243.667 162.717 242.312 164.032 240.639 164.032ZM240.639 159.387C239.665 159.387 238.881 160.147 238.881 161.093C238.881 162.038 239.665 162.799 240.639 162.799C241.613 162.799 242.396 162.038 242.396 161.093C242.396 160.147 241.613 159.387 240.639 159.387Z" fill="#3FB1B5"/>
<path d="M240.639 182.738C238.966 182.738 237.611 181.423 237.611 179.799C237.611 178.175 238.966 176.859 240.639 176.859C242.312 176.859 243.667 178.175 243.667 179.799C243.667 181.423 242.312 182.738 240.639 182.738ZM240.639 178.093C239.665 178.093 238.881 178.853 238.881 179.799C238.881 180.744 239.665 181.505 240.639 181.505C241.613 181.505 242.396 180.744 242.396 179.799C242.396 178.853 241.613 178.093 240.639 178.093Z" fill="#3FB1B5"/>
<path d="M179.019 230.366L188.569 217.148V230.366H179.019Z" fill="#3FB1B5"/>
<path d="M107.191 151.124C97.4075 157.373 87.1373 160.394 84.8927 157.681C84.8504 157.64 84.8292 157.599 84.7868 157.537C84.321 156.859 84.3633 155.934 84.7868 154.803C86.2479 151.083 92.283 145.327 99.9485 140.435C106.047 136.529 112.061 133.816 116.233 132.973C118.647 132.5 120.446 132.644 121.315 133.549L121.526 133.795C123.517 136.755 117.122 144.772 107.191 151.124Z" fill="#FE5244"/>
<path d="M107.191 151.123C101.622 154.68 95.883 157.208 91.5632 158.195L72.2299 131.719C69.5406 128.019 70.43 122.901 74.2628 120.29L91.6691 108.409L81.8013 92.1082C80.3613 89.7443 81.1872 86.6815 83.6435 85.3043C84.4482 84.852 85.3164 84.6465 86.1846 84.6465C87.8575 84.6465 89.5092 85.4482 90.4832 86.9282L121.336 133.507L121.548 133.836C123.517 136.755 117.122 144.772 107.191 151.123Z" fill="#E57281"/>
<path d="M97.1322 132.027C96.8569 132.027 96.5816 132.006 96.3063 131.944C95.2476 131.739 94.337 131.122 93.7653 130.259L83.5798 115.459C83.3893 115.171 83.4739 114.801 83.7492 114.595C84.0457 114.41 84.4269 114.493 84.6386 114.76L94.824 129.56C95.2264 130.156 95.8405 130.567 96.5604 130.711C97.2804 130.855 98.0216 130.711 98.6356 130.321L101.028 128.799C102.299 127.998 102.659 126.353 101.854 125.12L91.076 108.902C90.8854 108.614 90.9701 108.244 91.2665 108.059C91.563 107.874 91.9442 107.956 92.1348 108.244L102.913 124.462C104.099 126.271 103.548 128.676 101.706 129.827L99.3132 131.348C98.678 131.801 97.9157 132.027 97.1322 132.027Z" fill="#9A3B82"/>
<path d="M89.234 136.94C87.9211 136.94 86.6294 136.323 85.8459 135.192C85.6553 134.905 85.74 134.535 86.0365 134.329C86.3329 134.144 86.7141 134.226 86.9258 134.514C87.7517 135.727 89.4457 136.076 90.7163 135.295L92.8974 133.959C93.5115 133.569 93.9561 132.972 94.1044 132.253C94.2526 131.534 94.1256 130.814 93.7232 130.218C93.5326 129.93 93.6173 129.56 93.9138 129.355C94.2102 129.17 94.5914 129.252 94.8032 129.54C95.3961 130.424 95.6078 131.472 95.3749 132.52C95.142 133.548 94.5067 134.432 93.5961 135.007L91.4151 136.344C90.7375 136.734 89.9751 136.94 89.234 136.94Z" fill="#9A3B82"/>
<path d="M81.4839 141.544C80.2133 141.544 78.964 140.969 78.1805 139.879L72.3996 131.966C72.1878 131.678 72.2725 131.308 72.5478 131.102C72.8231 130.897 73.2254 130.979 73.4372 131.246L79.2181 139.16C80.0863 140.332 81.7168 140.64 82.945 139.879L82.9873 139.859L84.999 138.769C85.6343 138.379 86.0578 137.783 86.2272 137.084C86.3966 136.364 86.2484 135.645 85.846 135.028L75.8723 120.639C75.6818 120.352 75.7453 119.982 76.0418 119.776C76.3382 119.591 76.7194 119.653 76.9311 119.941L86.9048 134.329C87.5189 135.234 87.7095 136.303 87.4766 137.331C87.2436 138.358 86.6084 139.242 85.6766 139.797L85.6554 139.818L83.6438 140.907C82.945 141.359 82.2038 141.544 81.4839 141.544Z" fill="#9A3B82"/>
<path d="M114.136 122.654L109.075 115.028C107.402 112.5 103.908 111.801 101.346 113.486L88.7891 121.75C88.7891 121.75 92.4313 128.101 101.283 123.065L104.247 127.649C98.191 131.37 96.4546 139.201 100.393 145.019L114.136 122.654Z" fill="#E57281"/>
<path d="M100.393 145.635C100.181 145.635 99.9908 145.532 99.8637 145.347C97.8732 142.387 97.1745 138.852 97.9579 135.398C98.6779 132.15 100.605 129.355 103.379 127.464L101.071 123.887C98.0215 125.511 95.2475 125.984 92.7911 125.346C89.6783 124.524 88.2807 122.14 88.2172 122.058L87.9419 121.564L100.308 113.178C101.706 112.273 103.358 111.944 104.988 112.273C106.619 112.602 108.016 113.527 108.927 114.904L113.988 122.53C114.178 122.818 114.094 123.188 113.797 123.373C113.501 123.558 113.12 123.476 112.929 123.188L107.868 115.562C107.148 114.473 106.047 113.733 104.734 113.486C103.442 113.219 102.108 113.486 101.028 114.205L89.6571 121.914C90.1653 122.551 91.3088 123.702 93.1299 124.175C95.3745 124.771 98.0003 124.216 100.944 122.551L101.473 122.243L105.094 127.854L104.565 128.183C101.791 129.889 99.8637 132.562 99.1649 135.686C98.4662 138.81 99.0802 142.017 100.901 144.689C101.092 144.977 101.007 145.347 100.711 145.553C100.626 145.594 100.52 145.635 100.393 145.635Z" fill="#9A3B82"/>
<path d="M107.191 151.124C101.622 154.68 95.883 157.208 91.5632 158.195L86.7563 151.617C89.4456 148.205 94.2525 144.094 99.9487 140.455C106.047 136.55 112.061 133.837 116.233 132.994C118.647 132.521 120.447 132.665 121.315 133.569L121.527 133.816C121.548 133.857 121.569 133.878 121.59 133.919C121.611 133.939 121.611 133.96 121.632 134.001C121.654 134.042 121.675 134.063 121.696 134.104C123.136 137.249 116.804 144.957 107.191 151.124Z" fill="#9A3B82"/>
<path d="M256.563 124.607V142.676C256.563 147.918 249.067 152.152 239.856 152.152C230.623 152.152 223.148 147.918 223.148 142.676V124.607H256.563Z" fill="#E57281"/>
<path d="M228.039 149.377C225.011 147.671 223.126 145.286 223.126 142.676V124.607H256.563V129.623C256.563 134.824 253.302 139.49 248.347 141.443L228.039 149.377Z" fill="#9A3B82"/>
<path d="M265.88 123.539V123.847C265.88 126.971 263.275 129.5 260.057 129.5H256.224C254.932 134.556 250.231 138.318 244.598 138.318H235.112C229.5 138.318 224.778 134.577 223.508 129.5H219.675C216.456 129.5 213.852 126.971 213.852 123.847V123.539C213.852 120.414 216.456 117.886 219.675 117.886H223.148V113.425C223.148 108.656 226.769 104.71 231.491 104.052C232.528 105.737 235.662 109.766 242.057 109.54C245.064 109.437 247.86 108.882 250.168 108.225C252.942 107.443 255.716 109.088 256.414 111.657C256.52 112.233 256.584 112.808 256.584 113.405V117.865H260.057C263.254 117.865 265.88 120.414 265.88 123.539Z" fill="#E57281"/>
<path d="M259.231 117.865H256.562V112.911C256.562 112.479 256.499 112.048 256.393 111.657C255.694 109.088 252.92 107.443 250.146 108.224C247.838 108.882 245.064 109.437 242.036 109.54C235.641 109.766 232.507 105.737 231.469 104.052C226.747 104.709 223.126 108.656 223.126 113.425V117.886H219.802C219.802 117.886 215.99 104.504 218.849 100.722C221.665 97.001 225.053 98.6249 225.053 98.6249C225.053 98.6249 223.02 87.4838 234.37 87.6893C245.699 87.8949 260.438 100.66 261.518 103.003C263.212 106.601 259.231 117.865 259.231 117.865Z" fill="#9A3B82"/>
<path d="M257.855 125.101C257.558 125.101 257.325 124.874 257.325 124.587C257.325 122.12 259.4 120.105 261.941 120.105C262.238 120.105 262.471 120.332 262.471 120.619C262.471 120.907 262.238 121.133 261.941 121.133C259.972 121.133 258.384 122.675 258.384 124.587C258.384 124.874 258.151 125.101 257.855 125.101Z" fill="#9A3B82"/>
<path d="M221.898 125.101C221.602 125.101 221.369 124.874 221.369 124.587C221.369 122.675 219.78 121.133 217.811 121.133C217.515 121.133 217.282 120.907 217.282 120.619C217.282 120.332 217.515 120.105 217.811 120.105C220.352 120.105 222.427 122.12 222.427 124.587C222.427 124.874 222.194 125.101 221.898 125.101Z" fill="#9A3B82"/>
<path d="M251.226 113.939C251.121 113.939 251.015 113.898 250.909 113.836C250.803 113.754 248.071 111.884 244.577 113.302C244.302 113.405 244.006 113.281 243.878 113.014C243.773 112.747 243.9 112.459 244.175 112.336C248.241 110.712 251.396 112.891 251.523 112.994C251.756 113.158 251.819 113.487 251.629 113.713C251.544 113.857 251.396 113.939 251.226 113.939Z" fill="#9A3B82"/>
<path d="M228.272 113.94C228.103 113.94 227.955 113.858 227.849 113.734C227.679 113.508 227.722 113.179 227.955 113.015C228.082 112.912 231.258 110.733 235.303 112.357C235.578 112.46 235.705 112.768 235.599 113.036C235.493 113.303 235.175 113.426 234.9 113.323C231.385 111.905 228.611 113.837 228.569 113.858C228.484 113.899 228.378 113.94 228.272 113.94Z" fill="#9A3B82"/>
<path d="M241.189 131.247C240.363 131.247 239.41 131.083 238.33 130.692C238.055 130.589 237.907 130.302 238.013 130.034C238.119 129.767 238.415 129.623 238.69 129.726C243.137 131.329 244.598 128.493 244.662 128.369C244.789 128.123 245.107 127.999 245.361 128.123C245.615 128.246 245.742 128.554 245.615 128.801C245.594 128.842 244.387 131.247 241.189 131.247Z" fill="#9A3B82"/>
<path d="M239.686 127.383C239.199 127.383 238.67 127.383 238.225 127.342C237.928 127.321 237.717 127.074 237.738 126.787C237.759 126.499 238.013 126.293 238.31 126.314C239.559 126.396 241.486 126.314 241.507 126.314C241.804 126.293 242.036 126.519 242.058 126.807C242.079 127.095 241.846 127.321 241.549 127.342C241.507 127.342 240.639 127.383 239.686 127.383Z" fill="#9A3B82"/>
<path d="M247.817 121.997C248.402 121.997 248.876 121.224 248.876 120.271C248.876 119.317 248.402 118.544 247.817 118.544C247.232 118.544 246.758 119.317 246.758 120.271C246.758 121.224 247.232 121.997 247.817 121.997Z" fill="#9A3B82"/>
<path d="M232.634 121.997C233.219 121.997 233.693 121.224 233.693 120.271C233.693 119.317 233.219 118.544 232.634 118.544C232.049 118.544 231.575 119.317 231.575 120.271C231.575 121.224 232.049 121.997 232.634 121.997Z" fill="#9A3B82"/>
<path d="M235.154 126.601H228.484C226.917 126.601 225.625 125.347 225.625 123.826V117.351C225.625 115.83 226.917 114.576 228.484 114.576H235.154C236.721 114.576 238.013 115.83 238.013 117.351V123.826C238.034 124.546 237.737 125.245 237.208 125.758C236.657 126.313 235.937 126.601 235.154 126.601ZM228.484 115.604C227.488 115.604 226.684 116.385 226.684 117.351V123.826C226.684 124.792 227.488 125.573 228.484 125.573H235.154C235.641 125.573 236.107 125.388 236.446 125.039C236.785 124.71 236.954 124.278 236.954 123.826V117.351C236.954 116.385 236.149 115.604 235.154 115.604H228.484Z" fill="white"/>
<path d="M251.48 126.601H244.81C243.243 126.601 241.951 125.347 241.951 123.826V117.351C241.951 115.83 243.243 114.576 244.81 114.576H251.48C253.047 114.576 254.339 115.83 254.339 117.351V123.826C254.339 125.347 253.047 126.601 251.48 126.601ZM244.81 115.604C243.815 115.604 243.01 116.385 243.01 117.351V123.826C243.01 124.792 243.815 125.573 244.81 125.573H251.48C252.475 125.573 253.28 124.792 253.28 123.826V117.351C253.28 116.385 252.475 115.604 251.48 115.604H244.81Z" fill="white"/>
<path d="M242.481 118.852H237.504V119.879H242.481V118.852Z" fill="white"/>
<path d="M253.239 209.789H230.094C227.637 209.789 225.647 207.857 225.647 205.472V193.53C225.647 191.145 227.637 189.213 230.094 189.213H253.239C255.695 189.213 257.686 191.145 257.686 193.53V205.472C257.686 207.857 255.695 209.789 253.239 209.789ZM230.094 190.446C228.336 190.446 226.918 191.823 226.918 193.53V205.472C226.918 207.179 228.336 208.556 230.094 208.556H253.239C254.996 208.556 256.415 207.179 256.415 205.472V193.53C256.415 191.823 254.996 190.446 253.239 190.446H230.094Z" fill="#66B0F0"/>
<path d="M242.248 204.362H234.413C233.164 204.362 232.147 203.376 232.147 202.163V196.839C232.147 195.626 233.164 194.64 234.413 194.64H242.248C243.498 194.64 244.514 195.626 244.514 196.839V202.163C244.514 203.376 243.498 204.362 242.248 204.362Z" fill="#66B0F0"/>
<path d="M249.872 204.218L247.458 202.656C246.801 202.224 246.399 201.484 246.399 200.683V198.339C246.399 197.538 246.801 196.798 247.458 196.366L249.872 194.804C250.443 194.434 251.185 194.845 251.185 195.544V203.499C251.206 204.177 250.443 204.588 249.872 204.218Z" fill="#66B0F0"/>
<path d="M562.783 277.067H0.635267C0.275282 277.067 0 276.8 0 276.451C0 276.101 0.275282 275.834 0.635267 275.834H562.783C563.143 275.834 563.418 276.101 563.418 276.451C563.418 276.8 563.143 277.067 562.783 277.067Z" fill="#3FB1B5"/>
<path d="M181.623 280.047V533.827H166.864V485.521C166.864 481.02 163.094 477.361 158.457 477.361H52.8121C48.1746 477.361 44.4054 481.02 44.4054 485.521V533.827H29.646V280.047H181.623Z" fill="white"/>
<path d="M182.258 534.444H166.228V485.522C166.228 481.37 162.734 477.978 158.457 477.978H52.8121C48.5346 477.978 45.0407 481.37 45.0407 485.522V534.444H29.0107V279.431H182.258V534.444V534.444ZM167.499 533.211H180.988V280.664H30.2813V533.211H43.7701V485.522C43.7701 480.691 47.8358 476.745 52.8121 476.745H158.457C163.433 476.745 167.499 480.691 167.499 485.522V533.211Z" fill="#3FB1B5"/>
<path d="M182.068 280.047V347.387L29.646 469.221L29.6672 280.047H182.068Z" fill="#D0F0E4"/>
<path d="M158.901 353.74H52.3883C47.645 353.74 43.791 349.999 43.791 345.394V299.37C43.791 294.766 47.645 291.024 52.3883 291.024H158.901C163.645 291.024 167.499 294.766 167.499 299.37V345.394C167.499 349.999 163.645 353.74 158.901 353.74ZM52.3883 292.258C48.3438 292.258 45.0615 295.444 45.0615 299.37V345.394C45.0615 349.32 48.3438 352.506 52.3883 352.506H158.901C162.946 352.506 166.228 349.32 166.228 345.394V299.37C166.228 295.444 162.946 292.258 158.901 292.258H52.3883Z" fill="#3FB1B5"/>
<path d="M132.728 387.985H80.2978L78.1167 373.411H130.569L132.728 387.985Z" fill="#FFCF2D"/>
<path d="M160.702 365.004C154.158 365.004 148.864 370.143 148.864 376.495V387.985H104.248V376.495C104.248 370.143 109.541 365.004 116.085 365.004H160.702Z" fill="white"/>
<path d="M149.5 388.602H103.612V376.495C103.612 369.814 109.203 364.388 116.085 364.388H160.702V365.621C154.518 365.621 149.5 370.493 149.5 376.495V388.602ZM104.883 387.369H148.229V376.495C148.229 371.726 151.088 367.594 155.217 365.621H116.085C109.901 365.621 104.883 370.493 104.883 376.495V387.369Z" fill="#3FB1B5"/>
<path d="M171.819 373.411H127.202C125.826 368.56 121.231 365.004 115.789 365.004H160.405C165.848 365.004 170.422 368.56 171.819 373.411Z" fill="white"/>
<path d="M172.666 374.028H126.737L126.61 373.576C125.276 368.889 120.829 365.621 115.81 365.621V364.388H160.427C165.996 364.388 170.951 368.026 172.455 373.247L172.666 374.028ZM127.668 372.795H170.951C169.363 368.54 165.128 365.621 160.406 365.621H121.273C124.259 367.039 126.631 369.609 127.668 372.795Z" fill="#3FB1B5"/>
<path d="M158.901 450.083H52.3883C47.645 450.083 43.791 446.342 43.791 441.738V395.714C43.791 391.109 47.645 387.368 52.3883 387.368H158.901C163.645 387.368 167.499 391.109 167.499 395.714V441.738C167.499 446.342 163.645 450.083 158.901 450.083ZM52.3883 388.602C48.3438 388.602 45.0615 391.788 45.0615 395.714V441.738C45.0615 445.664 48.3438 448.85 52.3883 448.85H158.901C162.946 448.85 166.228 445.664 166.228 441.738V395.714C166.228 391.788 162.946 388.602 158.901 388.602H52.3883Z" fill="#3FB1B5"/>
<path d="M127.477 322.084C127.117 322.084 126.842 321.817 126.842 321.467C126.842 318.137 124.068 315.444 120.637 315.444H90.6737C87.2433 315.444 84.4693 318.137 84.4693 321.467C84.4693 321.817 84.194 322.084 83.834 322.084C83.474 322.084 83.1987 321.817 83.1987 321.467C83.1987 317.459 86.5445 314.211 90.6737 314.211H120.637C124.766 314.211 128.112 317.459 128.112 321.467C128.112 321.817 127.837 322.084 127.477 322.084Z" fill="#3FB1B5"/>
<path d="M127.477 418.427C127.117 418.427 126.842 418.16 126.842 417.811C126.842 414.481 124.068 411.788 120.637 411.788H90.6737C87.2433 411.788 84.4693 414.481 84.4693 417.811C84.4693 418.16 84.194 418.427 83.834 418.427C83.474 418.427 83.1987 418.16 83.1987 417.811C83.1987 413.802 86.5445 410.555 90.6737 410.555H120.637C124.766 410.555 128.112 413.802 128.112 417.811C128.112 418.16 127.837 418.427 127.477 418.427Z" fill="#3FB1B5"/>
<path d="M540.4 280.047H524.667V534.382H540.4V280.047Z" fill="white"/>
<path d="M541.035 534.999H524.031V279.431H541.035V534.999ZM525.302 533.766H539.765V280.664H525.302V533.766Z" fill="#3FB1B5"/>
<path d="M601.365 535H273.017C272.657 535 272.381 534.733 272.381 534.383C272.381 534.034 272.657 533.767 273.017 533.767H601.365C601.725 533.767 602 534.034 602 534.383C602 534.733 601.725 535 601.365 535Z" fill="#3FB1B5"/>
<path d="M74.3267 241.568H64.8189C64.8189 241.568 51.2454 186.664 39.3235 184.876C27.4017 183.087 26.7876 204.219 26.7876 204.219C26.7876 204.219 26.9994 172.09 56.7934 176.489C86.6086 180.888 74.3267 241.568 74.3267 241.568Z" fill="white"/>
<path d="M74.8564 242.185H64.3322L64.2051 241.712C64.1628 241.568 60.7535 227.837 55.9467 214.085C47.9846 191.33 42.4578 185.965 39.2391 185.493C37.0369 185.164 35.0887 185.657 33.4794 186.973C27.8679 191.495 27.4444 204.116 27.4444 204.239L26.1738 204.219C26.1738 204.054 26.2162 200.293 27.4655 195.483C28.6302 191.022 31.0866 184.794 36.2322 180.518C41.4626 176.181 48.4082 174.619 56.9207 175.893C62.4264 176.695 66.8944 179.449 70.219 184.033C75.5552 191.413 77.9904 203.355 77.4187 219.574C76.9952 231.599 75.0047 241.589 74.9835 241.692L74.8564 242.185ZM65.3274 240.952H73.8188C74.2212 238.793 75.7882 229.913 76.1481 219.512C76.5293 208.556 75.6188 193.653 69.1814 184.753C66.0686 180.436 61.8758 177.866 56.7301 177.126C48.6199 175.934 41.9919 177.394 37.058 181.484C35.5758 182.717 34.3052 184.136 33.2464 185.636C35.0464 184.403 37.1216 183.971 39.4509 184.321C44.6389 185.102 50.6104 195.01 57.1748 213.757C61.4735 226.069 64.671 238.403 65.3274 240.952Z" fill="#3FB1B5"/>
<path d="M70.1546 241.363C69.8158 241.363 69.5193 241.096 69.5193 240.746C68.8205 199.82 59.8844 185.369 52.5153 180.477C46.925 176.757 42.0334 178.442 41.9911 178.463C41.6523 178.586 41.2923 178.422 41.1652 178.093C41.0382 177.764 41.2076 177.414 41.5464 177.291C41.7793 177.209 47.0944 175.379 53.2353 179.449C57.9786 182.615 61.8538 188.412 64.7336 196.716C68.4394 207.405 70.4722 222.205 70.7898 240.726C70.7898 241.075 70.5146 241.363 70.1546 241.363Z" fill="#3FB1B5"/>
<path d="M100.224 240.746H55.5649V276.04H100.224V240.746Z" fill="#FE5244"/>
<path d="M109.626 258.403C106.788 259.595 103.4 259.452 100.245 258.115C97.9157 257.129 95.7135 255.505 93.9348 253.285C91.4784 250.202 89.8267 245.988 89.8267 240.746C89.8267 228.043 79.4083 220.067 75.1309 236.881C74.8344 238.053 74.5591 239.328 74.3262 240.746V240.705V240.623C74.3262 240.581 74.3262 240.52 74.3474 240.458V240.376C74.4321 239.328 74.7497 236.224 75.7238 232.483C76.4437 229.708 77.5237 226.624 79.133 223.767C79.9377 222.349 80.8694 220.992 81.9706 219.779C84.8081 216.614 88.7044 214.394 94.0194 214.394C103.803 214.394 110.96 225.576 113.692 236.717C116.084 246.399 115.11 256.08 109.626 258.403Z" fill="white"/>
<path d="M105.454 259.822C103.654 259.822 101.77 259.431 99.9911 258.671C97.4712 257.602 95.2055 255.875 93.4267 253.655C90.6527 250.181 89.1916 245.7 89.1916 240.746C89.1916 234.95 86.5658 228.413 82.6484 227.961C79.8108 227.632 77.3121 230.941 75.7451 237.026C75.4275 238.3 75.1734 239.534 74.9405 240.849L73.6699 240.746V240.623C73.6699 240.582 73.6699 240.479 73.6911 240.376V240.315C73.7758 239.164 74.1146 236.08 75.0887 232.319C75.9569 228.989 77.1215 226.008 78.5615 223.459C79.472 221.876 80.4249 220.52 81.4837 219.368C84.8083 215.648 89.0222 213.777 94.0196 213.777C104.184 213.777 111.532 225.227 114.306 236.574C115.534 241.569 115.873 246.481 115.238 250.408C114.539 254.827 112.675 257.766 109.88 258.959C108.525 259.534 107.021 259.822 105.454 259.822ZM82.2672 226.707C82.4578 226.707 82.6272 226.727 82.7966 226.748C87.0317 227.241 90.4621 233.531 90.4621 240.767C90.4621 245.454 91.8385 249.668 94.4431 252.936C96.0948 254.991 98.1912 256.595 100.499 257.581C103.527 258.856 106.767 258.959 109.372 257.869C114.115 255.855 115.619 247.242 113.078 236.902C111.659 231.085 109.139 225.72 106.005 221.794C102.469 217.375 98.3394 215.052 94.0196 215.052C89.4245 215.052 85.5282 216.799 82.4578 220.232C81.4625 221.342 80.552 222.596 79.705 224.117C78.6462 226.008 77.7356 228.125 76.9945 230.469C77.3545 229.893 77.7145 229.379 78.0956 228.927C79.5991 227.139 81.1237 226.707 82.2672 226.707Z" fill="#3FB1B5"/>
<path d="M107.36 259.41C107.043 259.41 106.767 259.184 106.725 258.855C103.633 230.674 96.5819 221.958 91.2245 219.615C86.4388 217.518 82.3943 220.252 82.3519 220.272C82.0766 220.478 81.6743 220.396 81.4625 220.128C81.2508 219.861 81.3355 219.471 81.6108 219.265C81.8013 219.142 86.2906 216.1 91.7327 218.484C95.3325 220.067 98.4665 223.643 101.029 229.152C104.247 236.039 106.577 245.987 107.974 258.711C108.017 259.04 107.763 259.349 107.403 259.39C107.403 259.41 107.381 259.41 107.36 259.41Z" fill="#3FB1B5"/>
<path d="M26.1518 204.219C26.1518 207.611 25.7495 220.581 38.4972 221.177C51.2449 221.773 52.5154 203.088 52.5154 203.088C52.5154 203.088 46.2474 186.562 39.323 184.876C27.6129 182.019 26.1518 204.219 26.1518 204.219Z" fill="#3FB1B5"/>
<path d="M89.8267 240.746H74.3262C77.9048 218.977 89.8267 227.159 89.8267 240.746Z" fill="#3FB1B5"/>
<path opacity="0.4" d="M353.06 80.8637V216.552C353.06 223.849 346.962 229.748 339.466 229.748H179.484C169.447 243.171 148.758 243.233 138.637 229.748L138.615 229.728C134.592 229.461 131.035 227.467 128.748 224.527L132.432 221.444L226.452 142.675L315.982 67.667H339.466C346.962 67.667 353.06 73.587 353.06 80.8637Z" fill="white"/>
<path opacity="0.4" d="M109.626 259.02C106.81 260.253 103.4 260.068 100.245 258.732V276.04H67.2749L93.9561 253.696L100.266 248.413L105.073 244.384L114.369 236.717C117.08 247.94 115.576 256.368 109.626 259.02Z" fill="white"/>
<path d="M390.392 350.348V464.76H363.16L345.817 417.75L320.979 350.348H390.392Z" fill="#A0505A"/>
<path d="M320.979 350.348H390.392V387.081L329.237 372.733L320.979 350.348Z" fill="#73325A"/>
<path d="M391.027 465.377H362.716L344.653 416.413L346.135 417.194C346.177 417.215 349.693 419.044 356.85 419.949C363.457 420.791 374.637 420.976 390.244 417.133L391.027 416.948V465.377V465.377ZM363.605 464.143H389.757V418.53C374.299 422.251 363.203 422.025 356.575 421.182C351.768 420.565 348.591 419.558 346.919 418.9L363.605 464.143Z" fill="white"/>
<path d="M359.984 429.405C357.93 429.405 356.257 427.781 356.257 425.787C356.257 423.793 357.93 422.169 359.984 422.169C362.038 422.169 363.711 423.793 363.711 425.787C363.711 427.781 362.038 429.405 359.984 429.405ZM359.984 423.402C358.628 423.402 357.527 424.471 357.527 425.787C357.527 427.102 358.628 428.171 359.984 428.171C361.339 428.171 362.44 427.102 362.44 425.787C362.44 424.471 361.339 423.402 359.984 423.402Z" fill="white"/>
<path d="M374.723 439.086C372.669 439.086 370.996 437.462 370.996 435.468C370.996 433.475 372.669 431.851 374.723 431.851C376.777 431.851 378.449 433.475 378.449 435.468C378.449 437.462 376.777 439.086 374.723 439.086ZM374.723 433.084C373.367 433.084 372.266 434.153 372.266 435.468C372.266 436.784 373.367 437.853 374.723 437.853C376.078 437.853 377.179 436.784 377.179 435.468C377.179 434.153 376.078 433.084 374.723 433.084Z" fill="white"/>
<path d="M385.691 428.335C383.637 428.335 381.964 426.711 381.964 424.717C381.964 422.724 383.637 421.1 385.691 421.1C387.745 421.1 389.418 422.724 389.418 424.717C389.418 426.711 387.745 428.335 385.691 428.335ZM385.691 422.333C384.336 422.333 383.234 423.402 383.234 424.717C383.234 426.033 384.336 427.102 385.691 427.102C387.046 427.102 388.147 426.033 388.147 424.717C388.147 423.402 387.046 422.333 385.691 422.333Z" fill="white"/>
<path d="M381.35 450.35C379.296 450.35 377.623 448.726 377.623 446.732C377.623 444.738 379.296 443.114 381.35 443.114C383.404 443.114 385.077 444.738 385.077 446.732C385.077 448.726 383.404 450.35 381.35 450.35ZM381.35 444.348C379.995 444.348 378.894 445.417 378.894 446.732C378.894 448.048 379.995 449.117 381.35 449.117C382.705 449.117 383.806 448.048 383.806 446.732C383.806 445.417 382.705 444.348 381.35 444.348Z" fill="white"/>
<path d="M363.076 444.883C361.022 444.883 359.349 443.259 359.349 441.265C359.349 439.271 361.022 437.647 363.076 437.647C365.13 437.647 366.803 439.271 366.803 441.265C366.803 443.259 365.13 444.883 363.076 444.883ZM363.076 438.881C361.721 438.881 360.62 439.95 360.62 441.265C360.62 442.581 361.721 443.65 363.076 443.65C364.431 443.65 365.532 442.581 365.532 441.265C365.532 439.95 364.431 438.881 363.076 438.881Z" fill="white"/>
<path d="M368.116 461.327C366.062 461.327 364.389 459.703 364.389 457.71C364.389 455.716 366.062 454.092 368.116 454.092C370.17 454.092 371.842 455.716 371.842 457.71C371.842 459.703 370.17 461.327 368.116 461.327ZM368.116 455.325C366.76 455.325 365.659 456.394 365.659 457.71C365.659 459.025 366.76 460.094 368.116 460.094C369.471 460.094 370.572 459.025 370.572 457.71C370.572 456.394 369.471 455.325 368.116 455.325Z" fill="white"/>
<path d="M403.267 486.097L384.59 523.735C381.943 529.799 375.823 533.745 369.026 533.745H345.203C339.105 533.745 335.399 527.743 337.728 522.275L361.678 466.199C363.012 462.787 365.363 459.95 368.306 457.956C371.271 455.963 374.828 454.832 378.576 454.832C383.785 454.832 388.952 458.265 392.383 462.068L400.683 470.763C404.516 474.997 405.511 480.938 403.267 486.097Z" fill="#66B0F0"/>
<path d="M403.267 486.097L384.59 523.734C381.943 529.798 375.823 533.745 369.026 533.745H343.7C341.35 533.745 340.015 532.327 339.232 530.374H344.865C351.662 530.374 357.782 526.427 360.429 520.363L381.964 476.765C383.976 472.695 388.232 470.084 392.891 470.084C398.968 470.084 403.584 474.401 404.431 479.869C404.516 481.965 404.135 484.082 403.267 486.097Z" fill="white"/>
<path d="M369.026 534.362H343.7C341.349 534.362 339.634 533.088 338.639 530.6C338.554 530.415 338.596 530.189 338.702 530.025C338.829 529.86 339.02 529.758 339.232 529.758H344.864C351.408 529.758 357.295 525.975 359.836 520.117C359.836 520.117 359.836 520.096 359.857 520.096L381.392 476.498C383.51 472.222 388.02 469.468 392.891 469.468C399.01 469.468 404.135 473.805 405.067 479.787C405.067 479.807 405.067 479.828 405.067 479.848C405.151 482.068 404.749 484.268 403.86 486.344C403.86 486.344 403.86 486.365 403.838 486.365L385.162 523.981C382.409 530.292 376.077 534.362 369.026 534.362ZM340.227 530.991C341.032 532.45 342.154 533.129 343.7 533.129H369.026C375.569 533.129 381.456 529.346 383.997 523.488C383.997 523.488 383.997 523.467 384.018 523.467L402.695 485.851C403.5 483.96 403.881 481.966 403.796 479.931C402.949 474.586 398.375 470.701 392.891 470.701C388.507 470.701 384.442 473.188 382.536 477.032L361 520.61C358.247 526.921 351.916 530.991 344.864 530.991H340.227Z" fill="#66B0F0"/>
<path d="M398.968 468.954C396.723 467.762 394.013 466.898 391.641 466.898C387.089 466.898 382.875 469.468 380.905 473.456L358.607 518.596C355.77 525.112 349.206 529.326 341.9 529.326H337.792C337.58 528.935 337.432 528.524 337.284 528.093H341.9C348.697 528.093 354.796 524.167 357.443 518.103L357.464 518.082L379.783 472.921C381.964 468.502 386.623 465.665 391.663 465.665C393.272 465.665 395.199 466.179 396.851 466.734L398.968 468.954Z" fill="white"/>
<path d="M320.979 350.348L315.664 417.75L313.292 447.946C313.292 447.946 297.813 464.679 280.194 454.36L272.042 417.771L253.386 334.048C248.346 311.416 264.27 289.401 287.924 286.338L320.979 350.348Z" fill="#A0505A"/>
<path d="M292.116 459.149C288.326 459.149 284.154 458.224 279.877 455.716L279.644 455.572L271.216 416.887L272.232 417.195C292.285 423.033 315.282 417.236 315.515 417.175L316.383 416.948L313.927 449.036L313.779 449.2C313.609 449.365 309.755 453.496 303.636 456.415C300.565 457.854 296.584 459.149 292.116 459.149ZM280.766 454.791C287.796 458.82 295.292 458.985 303.043 455.305C308.294 452.797 311.936 449.262 312.677 448.501L314.964 418.552C313.037 418.983 308.04 420.032 301.581 420.607C294.149 421.286 283.244 421.45 272.868 418.655L280.766 454.791Z" fill="white"/>
<path d="M291.332 437.011C289.278 437.011 287.605 435.387 287.605 433.393C287.605 431.399 289.278 429.775 291.332 429.775C293.386 429.775 295.059 431.399 295.059 433.393C295.059 435.387 293.386 437.011 291.332 437.011ZM291.332 431.009C289.977 431.009 288.876 432.078 288.876 433.393C288.876 434.709 289.977 435.778 291.332 435.778C292.688 435.778 293.789 434.709 293.789 433.393C293.789 432.078 292.688 431.009 291.332 431.009Z" fill="white"/>
<path d="M310.983 432.406C308.929 432.406 307.256 430.783 307.256 428.789C307.256 426.795 308.929 425.171 310.983 425.171C313.037 425.171 314.71 426.795 314.71 428.789C314.71 430.783 313.037 432.406 310.983 432.406ZM310.983 426.404C309.628 426.404 308.527 427.473 308.527 428.789C308.527 430.104 309.628 431.173 310.983 431.173C312.339 431.173 313.44 430.104 313.44 428.789C313.44 427.473 312.339 426.404 310.983 426.404Z" fill="white"/>
<path d="M279.474 428.336C277.42 428.336 275.747 426.712 275.747 424.718C275.747 422.725 277.42 421.101 279.474 421.101C281.528 421.101 283.201 422.725 283.201 424.718C283.201 426.712 281.528 428.336 279.474 428.336ZM279.474 422.334C278.119 422.334 277.018 423.403 277.018 424.718C277.018 426.034 278.119 427.103 279.474 427.103C280.829 427.103 281.93 426.034 281.93 424.718C281.93 423.403 280.829 422.334 279.474 422.334Z" fill="white"/>
<path d="M288.241 453.352C286.187 453.352 284.514 451.728 284.514 449.734C284.514 447.74 286.187 446.116 288.241 446.116C290.295 446.116 291.968 447.74 291.968 449.734C291.968 451.728 290.295 453.352 288.241 453.352ZM288.241 447.35C286.886 447.35 285.785 448.418 285.785 449.734C285.785 451.05 286.886 452.118 288.241 452.118C289.596 452.118 290.697 451.05 290.697 449.734C290.697 448.418 289.596 447.35 288.241 447.35Z" fill="white"/>
<path d="M302.661 447.35C300.607 447.35 298.935 445.726 298.935 443.732C298.935 441.738 300.607 440.114 302.661 440.114C304.715 440.114 306.388 441.738 306.388 443.732C306.388 445.726 304.715 447.35 302.661 447.35ZM302.661 441.348C301.306 441.348 300.205 442.417 300.205 443.732C300.205 445.048 301.306 446.117 302.661 446.117C304.017 446.117 305.118 445.048 305.118 443.732C305.118 442.417 304.017 441.348 302.661 441.348Z" fill="white"/>
<path d="M333.705 455.141L313.292 534.383H306.855C306.558 534.383 306.283 534.362 305.986 534.342C301.116 533.91 297.008 529.922 295.97 525.215L280.173 454.319C297.791 464.658 313.292 447.926 313.292 447.926L333.705 455.141Z" fill="#66B0F0"/>
<path d="M334.743 495.801C339.041 473.765 340.227 456.93 332.816 455.573C325.404 454.217 312.212 468.832 307.913 490.868C303.615 512.903 305.859 532.39 313.271 533.747C320.682 535.124 330.444 517.857 334.743 495.801Z" fill="white"/>
<path d="M314.118 534.445C313.8 534.445 313.461 534.424 313.143 534.363C309.29 533.664 306.6 528.607 305.563 520.138C304.567 511.978 305.181 501.535 307.278 490.764C309.268 480.589 313.313 471.113 318.67 464.083C323.583 457.649 328.919 454.237 332.921 454.977C336.775 455.676 338.681 459.91 338.787 467.927C338.872 474.463 337.749 483.611 335.357 495.924C333.663 504.598 331.1 512.759 327.945 519.521C324.832 526.202 321.423 530.889 318.098 533.088C316.743 533.972 315.409 534.445 314.118 534.445ZM331.82 456.107C328.432 456.107 323.879 459.355 319.708 464.823C314.456 471.709 310.496 481 308.527 490.99C306.452 501.659 305.838 511.957 306.812 519.994C307.765 527.764 310.158 532.554 313.376 533.15C314.605 533.376 315.96 533.006 317.4 532.06C323.901 527.764 330.783 512.82 334.107 495.697C336.5 483.487 337.601 474.402 337.516 467.947C337.432 460.712 335.801 456.765 332.688 456.189C332.413 456.128 332.117 456.107 331.82 456.107Z" fill="#66B0F0"/>
<path d="M304.948 490.517C302.725 501.946 302.069 512.984 303.127 521.618C303.89 527.826 305.499 532.245 307.701 534.383H306.854C306.558 534.383 306.282 534.362 305.986 534.342C303.996 531.793 302.577 527.517 301.857 521.762C300.777 513.026 301.433 501.843 303.699 490.291C305.838 479.355 310.158 469.098 315.896 461.39C319.327 456.785 322.926 453.558 326.209 452.099L328.114 452.715C320.555 454.894 309.078 469.365 304.948 490.517Z" fill="white"/>
<path d="M287.924 286.317L384.527 276.656L481.088 302.947L480.262 315.404C478.949 335.055 461.5 350.348 441.214 350.348H321.001L287.924 286.317Z" fill="#FE5244"/>
<path d="M436.957 342.333H316.744C316.384 342.333 316.108 342.065 316.108 341.716C316.108 341.366 316.384 341.099 316.744 341.099H436.957C446.147 341.099 455.782 336.392 463.406 328.149C470.626 320.338 474.946 310.574 474.946 302.043C474.946 301.694 475.222 301.427 475.582 301.427C475.942 301.427 476.217 301.694 476.217 302.043C476.217 310.882 471.77 320.955 464.358 328.992C456.481 337.461 446.507 342.333 436.957 342.333Z" fill="white"/>
<path d="M427.492 332.055H311.874C311.514 332.055 311.238 331.787 311.238 331.438C311.238 331.088 311.514 330.821 311.874 330.821H427.492C435.518 330.821 443.818 327.162 450.828 320.502C457.413 314.253 462.029 306.196 463.491 298.384C463.554 298.055 463.893 297.829 464.232 297.891C464.571 297.953 464.803 298.282 464.74 298.61C461.754 314.418 445.724 332.055 427.492 332.055Z" fill="white"/>
<path d="M417.306 321.572H305.732C305.372 321.572 305.097 321.304 305.097 320.955C305.097 320.605 305.372 320.338 305.732 320.338H417.306C432.553 320.338 445.788 307.018 450.51 294.5C450.637 294.171 450.997 294.006 451.314 294.13C451.653 294.253 451.823 294.603 451.696 294.911C449.07 301.879 444.326 308.437 438.313 313.37C431.769 318.735 424.506 321.572 417.306 321.572Z" fill="white"/>
<path d="M411.801 310.265H300.227C299.867 310.265 299.592 309.998 299.592 309.649C299.592 309.299 299.867 309.032 300.227 309.032H411.801C422.304 309.032 433.315 302.393 440.557 291.724C440.748 291.436 441.15 291.354 441.447 291.539C441.743 291.724 441.828 292.115 441.637 292.403C434.141 303.42 422.728 310.265 411.801 310.265Z" fill="white"/>
<path d="M406.507 299.988H294.933C294.573 299.988 294.298 299.721 294.298 299.371C294.298 299.022 294.573 298.755 294.933 298.755H406.507C414.596 298.755 422.749 295.137 429.462 288.58C429.716 288.333 430.118 288.333 430.351 288.58C430.605 288.826 430.605 289.217 430.351 289.443C423.405 296.247 414.935 299.988 406.507 299.988Z" fill="white"/>
<path d="M400.79 289.504H289.216C288.856 289.504 288.581 289.237 288.581 288.888C288.581 288.538 288.856 288.271 289.216 288.271H400.79C405.554 288.271 410.34 286.956 415.041 284.386C415.337 284.222 415.74 284.324 415.909 284.612C416.079 284.9 415.973 285.291 415.676 285.455C410.785 288.148 405.766 289.504 400.79 289.504Z" fill="white"/>
<path d="M320.768 350.966C320.535 350.966 320.302 350.843 320.196 350.617L287.141 286.586C286.992 286.277 287.12 285.907 287.416 285.763C287.734 285.62 288.115 285.743 288.263 286.031L321.318 350.062C321.466 350.37 321.339 350.74 321.043 350.884C320.958 350.945 320.873 350.966 320.768 350.966Z" fill="white"/>
<path d="M486.381 217.148C477.276 219.656 468.318 218.916 467.365 216.223C466.476 213.654 470.499 209.255 478.652 206.336C479.054 206.192 479.478 206.048 479.901 205.904C482.358 205.103 484.814 204.589 487.122 204.322C493.962 203.479 499.531 204.671 500.23 206.685C501.183 209.378 496.016 214.497 486.381 217.148Z" fill="white"/>
<path d="M475.539 219.306C470.923 219.306 467.429 218.299 466.751 216.429C465.608 213.14 470.626 208.556 478.419 205.76C478.821 205.616 479.245 205.472 479.668 205.329H479.69C482.082 204.547 484.56 204.013 487.037 203.725C494.047 202.862 499.976 204.054 500.823 206.5C501.119 207.302 500.971 208.289 500.42 209.316C498.642 212.605 493.2 215.935 486.55 217.765C482.718 218.792 478.843 219.306 475.539 219.306ZM491.463 204.671C490.171 204.671 488.753 204.753 487.207 204.938C484.814 205.226 482.421 205.74 480.113 206.5C479.69 206.644 479.266 206.788 478.885 206.932C475.2 208.247 472.066 209.995 470.076 211.865C468.403 213.427 467.62 214.99 467.98 216.038C468.678 218.032 476.831 219.142 486.212 216.572C491.4 215.154 497.456 212.174 499.298 208.741C499.679 208.021 499.806 207.384 499.637 206.891C499.256 205.801 496.249 204.671 491.463 204.671Z" fill="#3FB1B5"/>
<path d="M480.621 277.088H477.127L467.958 217.004V216.963L467.725 215.462C468.17 212.728 472.574 208.864 480.346 206.356C484.221 205.102 488.075 204.547 491.357 204.485L494.703 213.386L495.02 214.229L505.608 242.411C511.961 259.246 499.107 277.088 480.621 277.088Z" fill="#A0505A"/>
<path d="M494.914 214.023C492.691 215.38 489.811 216.634 486.381 217.579C478.503 219.738 470.52 218.854 467.958 217.004V216.963L467.725 215.462C468.17 212.728 472.574 208.864 480.346 206.356C484.221 205.102 488.075 204.547 491.357 204.485L494.914 214.023Z" fill="#73325A"/>
<path d="M367.205 227.652L356.088 254.498C350.603 267.757 337.347 276.452 322.609 276.452H173.173V263.173C173.173 259.966 175.206 257.088 178.298 255.958L193.65 250.305C195.048 249.791 196.509 249.524 197.991 249.524H215.419L314.054 239.862L331.079 202.02L367.205 227.652Z" fill="#A0505A"/>
<path d="M173.809 268.784C173.449 268.784 173.173 268.517 173.173 268.168C173.173 265.475 174.846 263.111 177.451 262.145L189.034 257.89C189.351 257.766 189.733 257.931 189.86 258.239C189.987 258.548 189.817 258.918 189.5 259.041L177.917 263.296C175.82 264.077 174.444 265.989 174.444 268.168C174.444 268.517 174.169 268.784 173.809 268.784Z" fill="#73325A"/>
<path d="M173.809 275.567C173.449 275.567 173.173 275.3 173.173 274.951C173.173 272.258 174.846 269.894 177.451 268.928L189.034 264.673C189.351 264.55 189.733 264.714 189.86 265.022C189.987 265.331 189.817 265.701 189.5 265.824L177.917 270.079C175.82 270.86 174.444 272.772 174.444 274.951C174.444 275.3 174.169 275.567 173.809 275.567Z" fill="#73325A"/>
<path d="M177.683 276.452C177.429 276.452 177.175 276.287 177.091 276.041C176.963 275.712 177.133 275.362 177.472 275.259L189.055 271.21C189.394 271.087 189.754 271.251 189.859 271.58C189.986 271.909 189.817 272.258 189.478 272.361L177.895 276.411C177.832 276.431 177.747 276.452 177.683 276.452Z" fill="#73325A"/>
<path d="M188.06 252.587C188.06 252.587 198.901 225.72 202.374 226.173C205.847 226.625 192.761 250.86 192.761 250.86L188.06 252.587Z" fill="#FE5244"/>
<path d="M331.079 202.04L328.581 207.57L360.577 243.645L367.205 227.652L331.079 202.04Z" fill="#73325A"/>
<path d="M467.958 217.025L481.087 302.948L384.548 276.657L367.205 227.632L322.44 195.873L338.152 177.702C352.17 161.484 372.859 152.11 394.67 152.11H425.692C452.67 152.11 477.509 166.417 490.447 189.398L500.505 206.295C500.505 206.295 497.477 201.978 481.151 206.316C466.773 210.16 467.958 217.025 467.958 217.025Z" fill="#3FB1B5"/>
<path d="M367.205 227.858C367.163 227.858 367.099 227.858 367.057 227.838C366.718 227.756 366.506 227.427 366.591 227.098L371.61 205.966C371.694 205.638 372.033 205.432 372.372 205.514C372.711 205.596 372.922 205.925 372.838 206.254L367.819 227.386C367.756 227.673 367.502 227.858 367.205 227.858Z" fill="white"/>
<path d="M478.652 283.502C478.355 283.502 478.08 283.297 478.017 282.988L461.69 184.465C461.627 184.136 461.86 183.807 462.22 183.766C462.558 183.704 462.897 183.93 462.939 184.28L479.266 282.803C479.329 283.132 479.097 283.461 478.737 283.502C478.715 283.502 478.694 283.502 478.652 283.502Z" fill="white"/>
<path d="M480.876 303.564C480.812 303.564 480.77 303.564 480.706 303.543L384.357 276.862C384.019 276.759 383.828 276.43 383.913 276.102C384.018 275.773 384.357 275.588 384.696 275.67L481.045 302.351C481.384 302.454 481.574 302.783 481.49 303.112C481.405 303.379 481.151 303.564 480.876 303.564Z" fill="white"/>
<path d="M389.735 138.379V152.192L414.85 151.986V127.607L389.735 138.379Z" fill="#A0505A"/>
<path d="M416.883 123.352V123.722C416.883 127.422 414.003 130.423 410.191 130.423H408.709C407.756 134.082 399.286 138.358 393.272 138.358H386.263C378.597 138.358 372.732 131.677 373.981 124.318L374.32 122.324L372.245 121.194C371.059 120.536 370.72 119.036 371.546 117.967L376.035 112.211L377.009 106.538C377.793 101.872 380.948 98.0688 385.14 96.1982C386.792 114.267 403.224 116.404 407.565 116.651H409.979C413.791 116.651 416.883 119.652 416.883 123.352Z" fill="#A0505A"/>
<path d="M405.766 125.737C405.406 125.737 405.13 125.47 405.13 125.12C405.13 121.872 407.862 119.221 411.208 119.221C411.568 119.221 411.843 119.488 411.843 119.837C411.843 120.187 411.568 120.454 411.208 120.454C408.561 120.454 406.401 122.551 406.401 125.12C406.401 125.47 406.126 125.737 405.766 125.737Z" fill="#73325A"/>
<path d="M382.811 116.836C383.408 116.836 383.891 115.751 383.891 114.411C383.891 113.071 383.408 111.985 382.811 111.985C382.215 111.985 381.731 113.071 381.731 114.411C381.731 115.751 382.215 116.836 382.811 116.836Z" fill="#73325A"/>
<path d="M387.216 111.348C387.025 111.348 386.834 111.266 386.707 111.101C383.891 107.319 381.265 107.524 381.223 107.524C380.863 107.566 380.566 107.319 380.524 106.969C380.482 106.641 380.736 106.332 381.096 106.291C381.223 106.271 384.484 106.024 387.724 110.361C387.936 110.628 387.872 111.019 387.576 111.225C387.47 111.307 387.343 111.348 387.216 111.348Z" fill="#73325A"/>
<path d="M407.566 116.651H409.98C413.791 116.651 416.883 119.653 416.883 123.353V123.723C416.883 127.423 414.003 130.424 410.191 130.424L408.561 131.534C401.7 135.809 392.213 152.624 394.543 164.526C397.168 177.907 409.175 180.888 420.271 178.832C431.367 176.777 439.456 170.507 436.83 157.105C436.534 155.522 436.047 153.939 435.433 152.377C435.623 152.439 435.793 152.501 435.983 152.562C449.324 156.098 464.994 156.509 469.314 146.395C473.633 136.282 472.659 126.271 459.679 121.05C452.14 118.008 441.891 118.029 433.95 120.125C437.953 106.62 430.838 91.5941 417.772 90.0935C397.253 87.7296 385.479 95.9519 385.162 96.178C385.141 98.5625 386.813 115.48 407.566 116.651Z" fill="#73325A"/>
<path d="M435.983 153.2C435.687 153.2 435.411 152.994 435.369 152.706C433.124 141.298 423.511 135.008 423.405 134.946C423.235 134.843 423.129 134.638 423.129 134.432C423.129 134.227 423.235 134.042 423.405 133.918C429.969 129.417 432.807 122.921 433.908 119.468C434.014 119.139 434.374 118.954 434.691 119.057C435.03 119.16 435.221 119.509 435.115 119.817C434.014 123.312 431.219 129.725 424.845 134.412C427.238 136.159 434.628 142.285 436.618 152.46C436.682 152.789 436.449 153.117 436.11 153.179C436.068 153.2 436.025 153.2 435.983 153.2Z" fill="white"/>
<path d="M440.24 119.817H434.628C434.268 119.817 433.993 119.549 433.993 119.2V113.753C433.993 110.567 436.661 107.977 439.944 107.977H440.24C443.522 107.977 446.19 110.567 446.19 113.753V114.04C446.212 115.562 445.597 117.021 444.475 118.111C443.353 119.2 441.849 119.817 440.24 119.817ZM435.264 118.583H440.24C441.511 118.583 442.675 118.11 443.565 117.227C444.433 116.363 444.92 115.233 444.92 114.04V113.753C444.92 111.245 442.823 109.21 440.24 109.21H439.944C437.36 109.21 435.264 111.245 435.264 113.753V118.583Z" fill="#FE5244"/>
<path d="M443.374 128.162C441.108 128.162 438.927 127.094 437.635 125.12L434.035 119.57C433.845 119.282 433.929 118.892 434.226 118.727L439.943 115.233C441.468 114.308 443.289 114 445.047 114.39C446.804 114.781 448.308 115.808 449.282 117.288L449.621 117.802C450.595 119.282 450.891 121.05 450.489 122.756C450.087 124.462 449.028 125.922 447.503 126.867L446.974 127.196C445.873 127.834 444.623 128.162 443.374 128.162ZM435.454 119.426L438.715 124.462C440.325 126.929 443.734 127.669 446.317 126.107L446.847 125.778C448.096 125.017 448.943 123.846 449.261 122.448C449.578 121.05 449.324 119.632 448.541 118.419L448.202 117.905C447.418 116.692 446.211 115.87 444.771 115.562C443.331 115.253 441.87 115.5 440.621 116.261L435.454 119.426Z" fill="#FE5244"/>
<path d="M408.688 144.607C408.54 144.607 408.391 144.607 408.243 144.587C406.655 144.463 405.215 143.765 404.177 142.593L403.987 142.367C402.949 141.216 402.441 139.736 402.547 138.215C402.653 136.673 403.373 135.255 404.58 134.247L408.561 130.547C408.688 130.424 408.857 130.362 409.027 130.383C409.196 130.383 409.365 130.465 409.471 130.588L413.389 134.884C414.426 136.056 414.956 137.557 414.829 139.098C414.702 140.64 413.982 142.038 412.775 143.045L412.521 143.23C411.483 144.114 410.128 144.607 408.688 144.607ZM408.984 131.863L405.469 135.131L405.448 135.152C404.495 135.953 403.923 137.063 403.839 138.297C403.754 139.51 404.156 140.661 404.961 141.565C404.961 141.565 404.961 141.586 404.982 141.586L405.173 141.812C405.977 142.716 407.1 143.271 408.349 143.374C409.598 143.456 410.805 143.066 411.758 142.285L412.012 142.079C412.944 141.298 413.516 140.208 413.622 138.996C413.706 137.783 413.304 136.611 412.499 135.686L408.984 131.863Z" fill="#FE5244"/>
<path d="M416.798 142.346C413.834 142.346 411.102 140.434 410.255 137.536L408.455 131.226C408.37 130.897 408.561 130.568 408.9 130.465L415.401 128.718C417.137 128.245 418.958 128.471 420.525 129.314C422.092 130.177 423.236 131.575 423.723 133.261L423.892 133.857C424.379 135.542 424.146 137.31 423.278 138.831C422.389 140.352 420.949 141.462 419.212 141.935L418.598 142.099C417.984 142.284 417.391 142.346 416.798 142.346ZM411.483 137.207C412.309 140.023 415.337 141.709 418.238 140.928L418.852 140.763C420.271 140.373 421.436 139.489 422.156 138.256C422.876 137.022 423.045 135.583 422.664 134.206L422.494 133.61C422.092 132.233 421.182 131.102 419.911 130.403C418.641 129.704 417.158 129.54 415.739 129.91L409.853 131.493L411.483 137.207Z" fill="#FE5244"/>
<path d="M316.193 534.364C316.15 534.364 316.108 534.364 316.066 534.344C315.727 534.282 315.494 533.953 315.579 533.604L352.466 366.013C352.53 365.684 352.869 365.458 353.229 365.54C353.568 365.602 353.8 365.931 353.716 366.28L316.807 533.871C316.743 534.159 316.489 534.364 316.193 534.364Z" fill="#FFCF2D"/>
<path d="M484.369 534.364C484.073 534.364 483.818 534.158 483.755 533.87L446.867 366.28C446.804 365.951 447.015 365.622 447.354 365.54C447.693 365.479 448.032 365.684 448.117 366.013L485.004 533.603C485.068 533.932 484.856 534.261 484.517 534.343C484.454 534.364 484.411 534.364 484.369 534.364Z" fill="#FFCF2D"/>
<path d="M475.687 497.157H324.367C324.007 497.157 323.731 496.89 323.731 496.541C323.731 496.191 324.007 495.924 324.367 495.924H475.687C476.047 495.924 476.322 496.191 476.322 496.541C476.322 496.89 476.047 497.157 475.687 497.157Z" fill="#FFCF2D"/>
<path d="M476.512 366.157H324.027C322.1 366.157 320.533 364.636 320.533 362.765V353.741C320.533 351.871 322.1 350.35 324.027 350.35H476.512C478.439 350.35 480.006 351.871 480.006 353.741V362.765C480.006 364.636 478.439 366.157 476.512 366.157Z" fill="white"/>
<path d="M476.512 366.773H324.027C321.74 366.773 319.898 364.985 319.898 362.765V353.741C319.898 351.521 321.74 349.732 324.027 349.732H476.512C478.799 349.732 480.642 351.521 480.642 353.741V362.765C480.642 364.985 478.799 366.773 476.512 366.773ZM324.027 350.966C322.46 350.966 321.168 352.22 321.168 353.741V362.765C321.168 364.286 322.46 365.54 324.027 365.54H476.512C478.079 365.54 479.371 364.286 479.371 362.765V353.741C479.371 352.22 478.079 350.966 476.512 350.966H324.027Z" fill="#66B0F0"/>
</svg>
